<svg xmlns="http://www.w3.org/2000/svg" xmlns:xlink="http://www.w3.org/1999/xlink" version="1.1" class="marks" width="475" height="311" viewBox="0 0 475 311"><rect width="475" height="311" fill="white"/><g fill="none" stroke-miterlimit="10" transform="translate(66,36)"><g class="mark-group role-frame root" role="graphics-object" aria-roledescription="group mark container"><g transform="translate(0,0)"><path class="background" aria-hidden="true" d="M0.5,0.5h400v200h-400Z" stroke="#ddd"/><g><g class="mark-group role-axis" aria-hidden="true"><g transform="translate(0.5,200.5)"><path class="background" aria-hidden="true" d="M0,0h0v0h0Z" pointer-events="none"/><g><g class="mark-rule role-axis-grid" pointer-events="none"><line transform="translate(0,-200)" x2="0" y2="200" stroke="#ddd" stroke-width="1" opacity="1"/><line transform="translate(19,-200)" x2="0" y2="200" stroke="#ddd" stroke-width="1" opacity="1"/><line transform="translate(38,-200)" x2="0" y2="200" stroke="#ddd" stroke-width="1" opacity="1"/><line transform="translate(57,-200)" x2="0" y2="200" stroke="#ddd" stroke-width="1" opacity="1"/><line transform="translate(76,-200)" x2="0" y2="200" stroke="#ddd" stroke-width="1" opacity="1"/><line transform="translate(96,-200)" x2="0" y2="200" stroke="#ddd" stroke-width="1" opacity="1"/><line transform="translate(114,-200)" x2="0" y2="200" stroke="#ddd" stroke-width="1" opacity="1"/><line transform="translate(133,-200)" x2="0" y2="200" stroke="#ddd" stroke-width="1" opacity="1"/><line transform="translate(152,-200)" x2="0" y2="200" stroke="#ddd" stroke-width="1" opacity="1"/><line transform="translate(172,-200)" x2="0" y2="200" stroke="#ddd" stroke-width="1" opacity="1"/><line transform="translate(190,-200)" x2="0" y2="200" stroke="#ddd" stroke-width="1" opacity="1"/><line transform="translate(210,-200)" x2="0" y2="200" stroke="#ddd" stroke-width="1" opacity="1"/><line transform="translate(229,-200)" x2="0" y2="200" stroke="#ddd" stroke-width="1" opacity="1"/><line transform="translate(248,-200)" x2="0" y2="200" stroke="#ddd" stroke-width="1" opacity="1"/><line transform="translate(267,-200)" x2="0" y2="200" stroke="#ddd" stroke-width="1" opacity="1"/><line transform="translate(286,-200)" x2="0" y2="200" stroke="#ddd" stroke-width="1" opacity="1"/><line transform="translate(306,-200)" x2="0" y2="200" stroke="#ddd" stroke-width="1" opacity="1"/><line transform="translate(325,-200)" x2="0" y2="200" stroke="#ddd" stroke-width="1" opacity="1"/><line transform="translate(342,-200)" x2="0" y2="200" stroke="#ddd" stroke-width="1" opacity="1"/><line transform="translate(362,-200)" x2="0" y2="200" stroke="#ddd" stroke-width="1" opacity="1"/><line transform="translate(381,-200)" x2="0" y2="200" stroke="#ddd" stroke-width="1" opacity="1"/><line transform="translate(400,-200)" x2="0" y2="200" stroke="#ddd" stroke-width="1" opacity="1"/></g></g><path class="foreground" aria-hidden="true" d="" pointer-events="none" display="none"/></g></g><g class="mark-group role-axis" aria-hidden="true"><g transform="translate(0.5,0.5)"><path class="background" aria-hidden="true" d="M0,0h0v0h0Z" pointer-events="none"/><g><g class="mark-rule role-axis-grid" pointer-events="none"><line transform="translate(0,200)" x2="400" y2="0" stroke="#ddd" stroke-width="1" opacity="1"/><line transform="translate(0,164)" x2="400" y2="0" stroke="#ddd" stroke-width="1" opacity="1"/><line transform="translate(0,129)" x2="400" y2="0" stroke="#ddd" stroke-width="1" opacity="1"/><line transform="translate(0,93)" x2="400" y2="0" stroke="#ddd" stroke-width="1" opacity="1"/><line transform="translate(0,57)" x2="400" y2="0" stroke="#ddd" stroke-width="1" opacity="1"/><line transform="translate(0,21)" x2="400" y2="0" stroke="#ddd" stroke-width="1" opacity="1"/></g></g><path class="foreground" aria-hidden="true" d="" pointer-events="none" display="none"/></g></g><g class="mark-group role-axis" role="graphics-symbol" aria-roledescription="axis" aria-label="X-axis titled 'Date (Month &amp; Year)' for a time scale with values from September 2023 to June 2025"><g transform="translate(0.5,200.5)"><path class="background" aria-hidden="true" d="M0,0h0v0h0Z" pointer-events="none"/><g><g class="mark-rule role-axis-tick" pointer-events="none"><line transform="translate(0,0)" x2="0" y2="5" stroke="#888" stroke-width="1" opacity="1"/><line transform="translate(19,0)" x2="0" y2="5" stroke="#888" stroke-width="1" opacity="1"/><line transform="translate(38,0)" x2="0" y2="5" stroke="#888" stroke-width="1" opacity="1"/><line transform="translate(57,0)" x2="0" y2="5" stroke="#888" stroke-width="1" opacity="1"/><line transform="translate(76,0)" x2="0" y2="5" stroke="#888" stroke-width="1" opacity="1"/><line transform="translate(96,0)" x2="0" y2="5" stroke="#888" stroke-width="1" opacity="1"/><line transform="translate(114,0)" x2="0" y2="5" stroke="#888" stroke-width="1" opacity="1"/><line transform="translate(133,0)" x2="0" y2="5" stroke="#888" stroke-width="1" opacity="1"/><line transform="translate(152,0)" x2="0" y2="5" stroke="#888" stroke-width="1" opacity="1"/><line transform="translate(172,0)" x2="0" y2="5" stroke="#888" stroke-width="1" opacity="1"/><line transform="translate(190,0)" x2="0" y2="5" stroke="#888" stroke-width="1" opacity="1"/><line transform="translate(210,0)" x2="0" y2="5" stroke="#888" stroke-width="1" opacity="1"/><line transform="translate(229,0)" x2="0" y2="5" stroke="#888" stroke-width="1" opacity="1"/><line transform="translate(248,0)" x2="0" y2="5" stroke="#888" stroke-width="1" opacity="1"/><line transform="translate(267,0)" x2="0" y2="5" stroke="#888" stroke-width="1" opacity="1"/><line transform="translate(286,0)" x2="0" y2="5" stroke="#888" stroke-width="1" opacity="1"/><line transform="translate(306,0)" x2="0" y2="5" stroke="#888" stroke-width="1" opacity="1"/><line transform="translate(325,0)" x2="0" y2="5" stroke="#888" stroke-width="1" opacity="1"/><line transform="translate(342,0)" x2="0" y2="5" stroke="#888" stroke-width="1" opacity="1"/><line transform="translate(362,0)" x2="0" y2="5" stroke="#888" stroke-width="1" opacity="1"/><line transform="translate(381,0)" x2="0" y2="5" stroke="#888" stroke-width="1" opacity="1"/><line transform="translate(400,0)" x2="0" y2="5" stroke="#888" stroke-width="1" opacity="1"/></g><g class="mark-text role-axis-label" pointer-events="none"><text text-anchor="end" transform="translate(0,7) rotate(315) translate(0,9)" font-family="Arial" font-size="12px" fill="#000000" opacity="1">Sep 2023</text><text text-anchor="end" transform="translate(18.779342723004692,7) rotate(315) translate(0,9)" font-family="Arial" font-size="12px" fill="#000000" opacity="0">Oct 2023</text><text text-anchor="end" transform="translate(38.18466353677621,7) rotate(315) translate(0,9)" font-family="Arial" font-size="12px" fill="#000000" opacity="0">Nov 2023</text><text text-anchor="end" transform="translate(56.99008868022952,7) rotate(315) translate(0,9)" font-family="Arial" font-size="12px" fill="#000000" opacity="0">Dec 2023</text><text text-anchor="end" transform="translate(76.39540949400104,7) rotate(315) translate(0,9)" font-family="Arial" font-size="12px" fill="#000000" opacity="1">Jan 2024</text><text text-anchor="end" transform="translate(95.80073030777257,7) rotate(315) translate(0,9)" font-family="Arial" font-size="12px" fill="#000000" opacity="0">Feb 2024</text><text text-anchor="end" transform="translate(113.95409494001044,7) rotate(315) translate(0,9)" font-family="Arial" font-size="12px" fill="#000000" opacity="0">Mar 2024</text><text text-anchor="end" transform="translate(133.33333333333331,7) rotate(315) translate(0,9)" font-family="Arial" font-size="12px" fill="#000000" opacity="0">Apr 2024</text><text text-anchor="end" transform="translate(152.11267605633802,7) rotate(315) translate(0,9)" font-family="Arial" font-size="12px" fill="#000000" opacity="1">May 2024</text><text text-anchor="end" transform="translate(171.51799687010956,7) rotate(315) translate(0,9)" font-family="Arial" font-size="12px" fill="#000000" opacity="0">Jun 2024</text><text text-anchor="end" transform="translate(190.29733959311423,7) rotate(315) translate(0,9)" font-family="Arial" font-size="12px" fill="#000000" opacity="0">Jul 2024</text><text text-anchor="end" transform="translate(209.70266040688577,7) rotate(315) translate(0,9)" font-family="Arial" font-size="12px" fill="#000000" opacity="0">Aug 2024</text><text text-anchor="end" transform="translate(229.1079812206573,7) rotate(315) translate(0,9)" font-family="Arial" font-size="12px" fill="#000000" opacity="1">Sep 2024</text><text text-anchor="end" transform="translate(247.88732394366195,7) rotate(315) translate(0,9)" font-family="Arial" font-size="12px" fill="#000000" opacity="0">Oct 2024</text><text text-anchor="end" transform="translate(267.2926447574335,7) rotate(315) translate(0,9)" font-family="Arial" font-size="12px" fill="#000000" opacity="0">Nov 2024</text><text text-anchor="end" transform="translate(286.0980699008868,7) rotate(315) translate(0,9)" font-family="Arial" font-size="12px" fill="#000000" opacity="0">Dec 2024</text><text text-anchor="end" transform="translate(305.5033907146583,7) rotate(315) translate(0,9)" font-family="Arial" font-size="12px" fill="#000000" opacity="1">Jan 2025</text><text text-anchor="end" transform="translate(324.9087115284298,7) rotate(315) translate(0,9)" font-family="Arial" font-size="12px" fill="#000000" opacity="0">Feb 2025</text><text text-anchor="end" transform="translate(342.4360980699009,7) rotate(315) translate(0,9)" font-family="Arial" font-size="12px" fill="#000000" opacity="0">Mar 2025</text><text text-anchor="end" transform="translate(361.8153364632238,7) rotate(315) translate(0,9)" font-family="Arial" font-size="12px" fill="#000000" opacity="0">Apr 2025</text><text text-anchor="end" transform="translate(380.59467918622846,7) rotate(315) translate(0,9)" font-family="Arial" font-size="12px" fill="#000000" opacity="1">May 2025</text><text text-anchor="end" transform="translate(400,7) rotate(315) translate(0,9)" font-family="Arial" font-size="12px" fill="#000000" opacity="0">Jun 2025</text></g><g class="mark-rule role-axis-domain" pointer-events="none"><line transform="translate(0,0)" x2="400" y2="0" stroke="#888" stroke-width="1" opacity="1"/></g><g class="mark-text role-axis-title" pointer-events="none"><text text-anchor="middle" transform="translate(200,66.04214953441027)" font-family="Arial" font-size="13px" font-weight="bold" fill="#000000" opacity="1">Date (Month &amp; Year)</text></g></g><path class="foreground" aria-hidden="true" d="" pointer-events="none" display="none"/></g></g><g class="mark-group role-axis" role="graphics-symbol" aria-roledescription="axis" aria-label="Y-axis titled 'Total Monthly Arrests' for a linear scale with values from 0 to 28,000"><g transform="translate(0.5,0.5)"><path class="background" aria-hidden="true" d="M0,0h0v0h0Z" pointer-events="none"/><g><g class="mark-rule role-axis-tick" pointer-events="none"><line transform="translate(0,200)" x2="-5" y2="0" stroke="#888" stroke-width="1" opacity="1"/><line transform="translate(0,164)" x2="-5" y2="0" stroke="#888" stroke-width="1" opacity="1"/><line transform="translate(0,129)" x2="-5" y2="0" stroke="#888" stroke-width="1" opacity="1"/><line transform="translate(0,93)" x2="-5" y2="0" stroke="#888" stroke-width="1" opacity="1"/><line transform="translate(0,57)" x2="-5" y2="0" stroke="#888" stroke-width="1" opacity="1"/><line transform="translate(0,21)" x2="-5" y2="0" stroke="#888" stroke-width="1" opacity="1"/></g><g class="mark-text role-axis-label" pointer-events="none"><text text-anchor="end" transform="translate(-7,204)" font-family="Arial" font-size="12px" fill="#000000" opacity="1">0</text><text text-anchor="end" transform="translate(-7,168.28571428571428)" font-family="Arial" font-size="12px" fill="#000000" opacity="1">5,000</text><text text-anchor="end" transform="translate(-7,132.57142857142856)" font-family="Arial" font-size="12px" fill="#000000" opacity="1">10,000</text><text text-anchor="end" transform="translate(-7,96.85714285714286)" font-family="Arial" font-size="12px" fill="#000000" opacity="1">15,000</text><text text-anchor="end" transform="translate(-7,61.14285714285714)" font-family="Arial" font-size="12px" fill="#000000" opacity="1">20,000</text><text text-anchor="end" transform="translate(-7,25.42857142857142)" font-family="Arial" font-size="12px" fill="#000000" opacity="1">25,000</text></g><g class="mark-rule role-axis-domain" pointer-events="none"><line transform="translate(0,200)" x2="0" y2="-200" stroke="#888" stroke-width="1" opacity="1"/></g><g class="mark-text role-axis-title" pointer-events="none"><text text-anchor="middle" transform="translate(-47.703125,100) rotate(-90) translate(0,-3)" font-family="Arial" font-size="13px" font-weight="bold" fill="#000000" opacity="1">Total Monthly Arrests</text></g></g><path class="foreground" aria-hidden="true" d="" pointer-events="none" display="none"/></g></g><g class="mark-line role-mark layer_0_marks" role="graphics-object" aria-roledescription="line mark container"><path aria-label="Date: Sep 2023; Total Monthly Arrests: 10313" role="graphics-symbol" aria-roledescription="line mark" d="M0,126.336L18.779,130.193L38.185,138.514L56.99,131.814L76.395,141.529L95.801,133.821L113.954,134.85L133.333,130.586L152.113,130.057L171.518,142.35L190.297,136.05L209.703,138.621L229.108,143.636L247.887,136.171L267.293,145.343L286.098,143.629L305.503,119.479L324.909,85.386L342.436,75.857L361.815,81.286L380.595,49.086L400,1.764" stroke="#008080" stroke-width="2"/></g><g class="mark-rule role-mark layer_1_marks" role="graphics-object" aria-roledescription="rule mark container"><line aria-label="apprehension_date (year-month): Jan 2025" role="graphics-symbol" aria-roledescription="rule mark" transform="translate(305.5033907146583,0)" x2="0" y2="200" stroke="red" stroke-width="2"/></g><g class="mark-text role-mark layer_2_marks" role="graphics-object" aria-roledescription="text mark container"><text aria-label="apprehension_date (year-month): Jan 2025; label: Trump Inaugurated" role="graphics-symbol" aria-roledescription="text mark" text-anchor="start" transform="translate(310.5033907146583,-2)" font-family="sans-serif" font-size="11px" fill="red">Trump Inaugurated</text></g><g class="mark-group role-title"><g transform="translate(200,-31)"><path class="background" aria-hidden="true" d="M0,0h0v0h0Z" pointer-events="none"/><g><g class="mark-text role-title-text" role="graphics-symbol" aria-roledescription="title" aria-label="Title text 'ICE Arrests Over Time'" pointer-events="none"><text text-anchor="middle" transform="translate(0,13)" font-family="Arial" font-size="16px" font-weight="bold" fill="#000000" opacity="1">ICE Arrests Over Time</text></g></g><path class="foreground" aria-hidden="true" d="" pointer-events="none" display="none"/></g></g></g><path class="foreground" aria-hidden="true" d="" display="none"/></g></g></g></svg>