<svg xmlns="http://www.w3.org/2000/svg" xmlns:xlink="http://www.w3.org/1999/xlink" version="1.1" class="marks" width="279" height="362" viewBox="0 0 279 362"><rect width="279" height="362" fill="white"/><g fill="none" stroke-miterlimit="10" transform="translate(73,31)"><g class="mark-group role-frame root" role="graphics-object" aria-roledescription="group mark container"><g transform="translate(0,0)"><path class="background" aria-hidden="true" d="M0.5,0.5h200v200h-200Z" stroke="#ddd"/><g><g class="mark-group role-axis" aria-hidden="true"><g transform="translate(0.5,0.5)"><path class="background" aria-hidden="true" d="M0,0h0v0h0Z" pointer-events="none"/><g><g class="mark-rule role-axis-grid" pointer-events="none"><line transform="translate(0,200)" x2="200" y2="0" stroke="#ddd" stroke-width="1" opacity="1"/><line transform="translate(0,160)" x2="200" y2="0" stroke="#ddd" stroke-width="1" opacity="1"/><line transform="translate(0,120)" x2="200" y2="0" stroke="#ddd" stroke-width="1" opacity="1"/><line transform="translate(0,80)" x2="200" y2="0" stroke="#ddd" stroke-width="1" opacity="1"/><line transform="translate(0,40)" x2="200" y2="0" stroke="#ddd" stroke-width="1" opacity="1"/><line transform="translate(0,0)" x2="200" y2="0" stroke="#ddd" stroke-width="1" opacity="1"/></g></g><path class="foreground" aria-hidden="true" d="" pointer-events="none" display="none"/></g></g><g class="mark-group role-axis" role="graphics-symbol" aria-roledescription="axis" aria-label="X-axis titled 'Citizenship Country' for a discrete scale with 10 values: MEXICO, GUATEMALA, HONDURAS, VENEZUELA, NICARAGUA, ending with DOMINICAN REPUBLIC"><g transform="translate(0.5,200.5)"><path class="background" aria-hidden="true" d="M0,0h0v0h0Z" pointer-events="none"/><g><g class="mark-rule role-axis-tick" pointer-events="none"><line transform="translate(10,0)" x2="0" y2="5" stroke="#888" stroke-width="1" opacity="1"/><line transform="translate(30,0)" x2="0" y2="5" stroke="#888" stroke-width="1" opacity="1"/><line transform="translate(50,0)" x2="0" y2="5" stroke="#888" stroke-width="1" opacity="1"/><line transform="translate(70,0)" x2="0" y2="5" stroke="#888" stroke-width="1" opacity="1"/><line transform="translate(90,0)" x2="0" y2="5" stroke="#888" stroke-width="1" opacity="1"/><line transform="translate(110,0)" x2="0" y2="5" stroke="#888" stroke-width="1" opacity="1"/><line transform="translate(130,0)" x2="0" y2="5" stroke="#888" stroke-width="1" opacity="1"/><line transform="translate(150,0)" x2="0" y2="5" stroke="#888" stroke-width="1" opacity="1"/><line transform="translate(170,0)" x2="0" y2="5" stroke="#888" stroke-width="1" opacity="1"/><line transform="translate(190,0)" x2="0" y2="5" stroke="#888" stroke-width="1" opacity="1"/></g><g class="mark-text role-axis-label" pointer-events="none"><text text-anchor="end" transform="translate(9.5,7) rotate(315) translate(0,9)" font-family="Arial" font-size="12px" fill="#000000" opacity="1">MEXICO</text><text text-anchor="end" transform="translate(29.5,7) rotate(315) translate(0,9)" font-family="Arial" font-size="12px" fill="#000000" opacity="1">GUATEMALA</text><text text-anchor="end" transform="translate(49.5,7) rotate(315) translate(0,9)" font-family="Arial" font-size="12px" fill="#000000" opacity="1">HONDURAS</text><text text-anchor="end" transform="translate(69.5,7) rotate(315) translate(0,9)" font-family="Arial" font-size="12px" fill="#000000" opacity="1">VENEZUELA</text><text text-anchor="end" transform="translate(89.5,7) rotate(315) translate(0,9)" font-family="Arial" font-size="12px" fill="#000000" opacity="1">NICARAGUA</text><text text-anchor="end" transform="translate(109.5,7) rotate(315) translate(0,9)" font-family="Arial" font-size="12px" fill="#000000" opacity="1">EL SALVADOR</text><text text-anchor="end" transform="translate(129.5,7) rotate(315) translate(0,9)" font-family="Arial" font-size="12px" fill="#000000" opacity="1">COLOMBIA</text><text text-anchor="end" transform="translate(149.5,7) rotate(315) translate(0,9)" font-family="Arial" font-size="12px" fill="#000000" opacity="1">ECUADOR</text><text text-anchor="end" transform="translate(169.5,7) rotate(315) translate(0,9)" font-family="Arial" font-size="12px" fill="#000000" opacity="1">CUBA</text><text text-anchor="end" transform="translate(189.5,7) rotate(315) translate(0,9)" font-family="Arial" font-size="12px" fill="#000000" opacity="1">DOMINICAN REPUBLIC</text></g><g class="mark-rule role-axis-domain" pointer-events="none"><line transform="translate(0,0)" x2="200" y2="0" stroke="#888" stroke-width="1" opacity="1"/></g><g class="mark-text role-axis-title" pointer-events="none"><text text-anchor="middle" transform="translate(100,122.12869932106435)" font-family="Arial" font-size="13px" font-weight="bold" fill="#000000" opacity="1">Citizenship Country</text></g></g><path class="foreground" aria-hidden="true" d="" pointer-events="none" display="none"/></g></g><g class="mark-group role-axis" role="graphics-symbol" aria-roledescription="axis" aria-label="Y-axis titled 'Arrests' for a linear scale with values from 0 to 100,000"><g transform="translate(0.5,0.5)"><path class="background" aria-hidden="true" d="M0,0h0v0h0Z" pointer-events="none"/><g><g class="mark-rule role-axis-tick" pointer-events="none"><line transform="translate(0,200)" x2="-5" y2="0" stroke="#888" stroke-width="1" opacity="1"/><line transform="translate(0,160)" x2="-5" y2="0" stroke="#888" stroke-width="1" opacity="1"/><line transform="translate(0,120)" x2="-5" y2="0" stroke="#888" stroke-width="1" opacity="1"/><line transform="translate(0,80)" x2="-5" y2="0" stroke="#888" stroke-width="1" opacity="1"/><line transform="translate(0,40)" x2="-5" y2="0" stroke="#888" stroke-width="1" opacity="1"/><line transform="translate(0,0)" x2="-5" y2="0" stroke="#888" stroke-width="1" opacity="1"/></g><g class="mark-text role-axis-label" pointer-events="none"><text text-anchor="end" transform="translate(-7,204)" font-family="Arial" font-size="12px" fill="#000000" opacity="1">0</text><text text-anchor="end" transform="translate(-7,164)" font-family="Arial" font-size="12px" fill="#000000" opacity="1">20,000</text><text text-anchor="end" transform="translate(-7,124)" font-family="Arial" font-size="12px" fill="#000000" opacity="1">40,000</text><text text-anchor="end" transform="translate(-7,84)" font-family="Arial" font-size="12px" fill="#000000" opacity="1">60,000</text><text text-anchor="end" transform="translate(-7,43.99999999999999)" font-family="Arial" font-size="12px" fill="#000000" opacity="1">80,000</text><text text-anchor="end" transform="translate(-7,4)" font-family="Arial" font-size="12px" fill="#000000" opacity="1">100,000</text></g><g class="mark-rule role-axis-domain" pointer-events="none"><line transform="translate(0,200)" x2="0" y2="-200" stroke="#888" stroke-width="1" opacity="1"/></g><g class="mark-text role-axis-title" pointer-events="none"><text text-anchor="middle" transform="translate(-54.376953125,100) rotate(-90) translate(0,-3)" font-family="Arial" font-size="13px" font-weight="bold" fill="#000000" opacity="1">Arrests</text></g></g><path class="foreground" aria-hidden="true" d="" pointer-events="none" display="none"/></g></g><g class="mark-rect role-mark marks" role="graphics-object" aria-roledescription="rect mark container"><path aria-label="Citizenship Country: MEXICO; Arrests: 94320" role="graphics-symbol" aria-roledescription="bar" d="M1,11.359999999999992h18v188.64000000000001h-18Z" fill="#008080"/><path aria-label="Citizenship Country: GUATEMALA; Arrests: 31367" role="graphics-symbol" aria-roledescription="bar" d="M21,137.266h18v62.73400000000001h-18Z" fill="#008080"/><path aria-label="Citizenship Country: HONDURAS; Arrests: 28262" role="graphics-symbol" aria-roledescription="bar" d="M41,143.476h18v56.524h-18Z" fill="#008080"/><path aria-label="Citizenship Country: VENEZUELA; Arrests: 14601" role="graphics-symbol" aria-roledescription="bar" d="M61,170.798h18v29.201999999999998h-18Z" fill="#008080"/><path aria-label="Citizenship Country: NICARAGUA; Arrests: 14285" role="graphics-symbol" aria-roledescription="bar" d="M81,171.43h18v28.569999999999993h-18Z" fill="#008080"/><path aria-label="Citizenship Country: EL SALVADOR; Arrests: 11476" role="graphics-symbol" aria-roledescription="bar" d="M101,177.048h18v22.951999999999998h-18Z" fill="#008080"/><path aria-label="Citizenship Country: COLOMBIA; Arrests: 9679" role="graphics-symbol" aria-roledescription="bar" d="M121,180.642h18v19.358000000000004h-18Z" fill="#008080"/><path aria-label="Citizenship Country: ECUADOR; Arrests: 9209" role="graphics-symbol" aria-roledescription="bar" d="M141,181.582h18v18.418000000000006h-18Z" fill="#008080"/><path aria-label="Citizenship Country: CUBA; Arrests: 5999" role="graphics-symbol" aria-roledescription="bar" d="M161,188.002h18v11.99799999999999h-18Z" fill="#008080"/><path aria-label="Citizenship Country: DOMINICAN REPUBLIC; Arrests: 4890" role="graphics-symbol" aria-roledescription="bar" d="M181,190.22h18v9.780000000000001h-18Z" fill="#008080"/></g><g class="mark-group role-title"><g transform="translate(100,-26)"><path class="background" aria-hidden="true" d="M0,0h0v0h0Z" pointer-events="none"/><g><g class="mark-text role-title-text" role="graphics-symbol" aria-roledescription="title" aria-label="Title text 'Top 10 Countries of Origin'" pointer-events="none"><text text-anchor="middle" transform="translate(0,13)" font-family="Arial" font-size="16px" font-weight="bold" fill="#000000" opacity="1">Top 10 Countries of Origin</text></g></g><path class="foreground" aria-hidden="true" d="" pointer-events="none" display="none"/></g></g></g><path class="foreground" aria-hidden="true" d="" display="none"/></g></g></g></svg>