<svg xmlns="http://www.w3.org/2000/svg" xmlns:xlink="http://www.w3.org/1999/xlink" version="1.1" class="marks" width="325" height="372" viewBox="0 0 325 372"><rect width="325" height="372" fill="white"/><g fill="none" stroke-miterlimit="10" transform="translate(94,37)"><g class="mark-group role-frame root" role="graphics-object" aria-roledescription="group mark container"><g transform="translate(0,0)"><path class="background" aria-hidden="true" d="M0.5,0.5h200v150h-200Z" stroke="#ddd"/><g><g class="mark-group role-axis" aria-hidden="true"><g transform="translate(0.5,0.5)"><path class="background" aria-hidden="true" d="M0,0h0v0h0Z" pointer-events="none"/><g><g class="mark-rule role-axis-grid" pointer-events="none"><line transform="translate(0,150)" x2="200" y2="0" stroke="#ddd" stroke-width="1" opacity="1"/><line transform="translate(0,120)" x2="200" y2="0" stroke="#ddd" stroke-width="1" opacity="1"/><line transform="translate(0,90)" x2="200" y2="0" stroke="#ddd" stroke-width="1" opacity="1"/><line transform="translate(0,60)" x2="200" y2="0" stroke="#ddd" stroke-width="1" opacity="1"/><line transform="translate(0,30)" x2="200" y2="0" stroke="#ddd" stroke-width="1" opacity="1"/><line transform="translate(0,0)" x2="200" y2="0" stroke="#ddd" stroke-width="1" opacity="1"/></g></g><path class="foreground" aria-hidden="true" d="" pointer-events="none" display="none"/></g></g><g class="mark-group role-axis" role="graphics-symbol" aria-roledescription="axis" aria-label="X-axis titled 'Citizenship Country' for a discrete scale with 10 values: MEXICO, GUATEMALA, HONDURAS, VENEZUELA, NICARAGUA, ending with DOMINICAN REPUBLIC"><g transform="translate(0.5,150.5)"><path class="background" aria-hidden="true" d="M0,0h0v0h0Z" pointer-events="none"/><g><g class="mark-rule role-axis-tick" pointer-events="none"><line transform="translate(10,0)" x2="0" y2="5" stroke="#888" stroke-width="1" opacity="1"/><line transform="translate(30,0)" x2="0" y2="5" stroke="#888" stroke-width="1" opacity="1"/><line transform="translate(50,0)" x2="0" y2="5" stroke="#888" stroke-width="1" opacity="1"/><line transform="translate(70,0)" x2="0" y2="5" stroke="#888" stroke-width="1" opacity="1"/><line transform="translate(90,0)" x2="0" y2="5" stroke="#888" stroke-width="1" opacity="1"/><line transform="translate(110,0)" x2="0" y2="5" stroke="#888" stroke-width="1" opacity="1"/><line transform="translate(130,0)" x2="0" y2="5" stroke="#888" stroke-width="1" opacity="1"/><line transform="translate(150,0)" x2="0" y2="5" stroke="#888" stroke-width="1" opacity="1"/><line transform="translate(170,0)" x2="0" y2="5" stroke="#888" stroke-width="1" opacity="1"/><line transform="translate(190,0)" x2="0" y2="5" stroke="#888" stroke-width="1" opacity="1"/></g><g class="mark-text role-axis-label" pointer-events="none"><text text-anchor="end" transform="translate(9.5,7) rotate(305) translate(0,5)" font-family="Arial" font-size="16px" fill="#000000" opacity="1">MEXICO</text><text text-anchor="end" transform="translate(29.5,7) rotate(305) translate(0,5)" font-family="Arial" font-size="16px" fill="#000000" opacity="1">GUATEMALA</text><text text-anchor="end" transform="translate(49.5,7) rotate(305) translate(0,5)" font-family="Arial" font-size="16px" fill="#000000" opacity="1">HONDURAS</text><text text-anchor="end" transform="translate(69.5,7) rotate(305) translate(0,5)" font-family="Arial" font-size="16px" fill="#000000" opacity="1">VENEZUELA</text><text text-anchor="end" transform="translate(89.5,7) rotate(305) translate(0,5)" font-family="Arial" font-size="16px" fill="#000000" opacity="1">NICARAGUA</text><text text-anchor="end" transform="translate(109.5,7) rotate(305) translate(0,5)" font-family="Arial" font-size="16px" fill="#000000" opacity="1">EL SALVADOR</text><text text-anchor="end" transform="translate(129.5,7) rotate(305) translate(0,5)" font-family="Arial" font-size="16px" fill="#000000" opacity="1">COLOMBIA</text><text text-anchor="end" transform="translate(149.5,7) rotate(305) translate(0,5)" font-family="Arial" font-size="16px" fill="#000000" opacity="1">ECUADOR</text><text text-anchor="end" transform="translate(169.5,7) rotate(305) translate(0,5)" font-family="Arial" font-size="16px" fill="#000000" opacity="1">CUBA</text><text text-anchor="end" transform="translate(189.5,7) rotate(305) translate(0,5)" font-family="Arial" font-size="16px" fill="#000000" opacity="1">DOMINICAN REPUBLIC</text></g><g class="mark-rule role-axis-domain" pointer-events="none"><line transform="translate(0,0)" x2="200" y2="0" stroke="#888" stroke-width="1" opacity="1"/></g><g class="mark-text role-axis-title" pointer-events="none"><text text-anchor="middle" transform="translate(100,175.77857016170896)" font-family="Arial" font-size="20px" font-weight="bold" fill="#000000" opacity="1">Citizenship Country</text></g></g><path class="foreground" aria-hidden="true" d="" pointer-events="none" display="none"/></g></g><g class="mark-group role-axis" role="graphics-symbol" aria-roledescription="axis" aria-label="Y-axis titled 'Arrests' for a linear scale with values from 0 to 100,000"><g transform="translate(0.5,0.5)"><path class="background" aria-hidden="true" d="M0,0h0v0h0Z" pointer-events="none"/><g><g class="mark-rule role-axis-tick" pointer-events="none"><line transform="translate(0,150)" x2="-5" y2="0" stroke="#888" stroke-width="1" opacity="1"/><line transform="translate(0,120)" x2="-5" y2="0" stroke="#888" stroke-width="1" opacity="1"/><line transform="translate(0,90)" x2="-5" y2="0" stroke="#888" stroke-width="1" opacity="1"/><line transform="translate(0,60)" x2="-5" y2="0" stroke="#888" stroke-width="1" opacity="1"/><line transform="translate(0,30)" x2="-5" y2="0" stroke="#888" stroke-width="1" opacity="1"/><line transform="translate(0,0)" x2="-5" y2="0" stroke="#888" stroke-width="1" opacity="1"/></g><g class="mark-text role-axis-label" pointer-events="none"><text text-anchor="end" transform="translate(-7,155)" font-family="Arial" font-size="16px" fill="#000000" opacity="1">0</text><text text-anchor="end" transform="translate(-7,125)" font-family="Arial" font-size="16px" fill="#000000" opacity="1">20,000</text><text text-anchor="end" transform="translate(-7,95)" font-family="Arial" font-size="16px" fill="#000000" opacity="1">40,000</text><text text-anchor="end" transform="translate(-7,65)" font-family="Arial" font-size="16px" fill="#000000" opacity="1">60,000</text><text text-anchor="end" transform="translate(-7,34.99999999999999)" font-family="Arial" font-size="16px" fill="#000000" opacity="1">80,000</text><text text-anchor="end" transform="translate(-7,5)" font-family="Arial" font-size="16px" fill="#000000" opacity="1">100,000</text></g><g class="mark-rule role-axis-domain" pointer-events="none"><line transform="translate(0,150)" x2="0" y2="-150" stroke="#888" stroke-width="1" opacity="1"/></g><g class="mark-text role-axis-title" pointer-events="none"><text text-anchor="middle" transform="translate(-68.8359375,75) rotate(-90) translate(0,-4)" font-family="Arial" font-size="20px" font-weight="bold" fill="#000000" opacity="1">Arrests</text></g></g><path class="foreground" aria-hidden="true" d="" pointer-events="none" display="none"/></g></g><g class="mark-rect role-mark marks" role="graphics-object" aria-roledescription="rect mark container"><path aria-label="Citizenship Country: MEXICO; Arrests: 94320" role="graphics-symbol" aria-roledescription="bar" d="M1,8.519999999999994h18v141.48000000000002h-18Z" fill="#008080"/><path aria-label="Citizenship Country: GUATEMALA; Arrests: 31367" role="graphics-symbol" aria-roledescription="bar" d="M21,102.9495h18v47.0505h-18Z" fill="#008080"/><path aria-label="Citizenship Country: HONDURAS; Arrests: 28262" role="graphics-symbol" aria-roledescription="bar" d="M41,107.607h18v42.393h-18Z" fill="#008080"/><path aria-label="Citizenship Country: VENEZUELA; Arrests: 14601" role="graphics-symbol" aria-roledescription="bar" d="M61,128.0985h18v21.9015h-18Z" fill="#008080"/><path aria-label="Citizenship Country: NICARAGUA; Arrests: 14285" role="graphics-symbol" aria-roledescription="bar" d="M81,128.5725h18v21.42750000000001h-18Z" fill="#008080"/><path aria-label="Citizenship Country: EL SALVADOR; Arrests: 11476" role="graphics-symbol" aria-roledescription="bar" d="M101,132.786h18v17.214h-18Z" fill="#008080"/><path aria-label="Citizenship Country: COLOMBIA; Arrests: 9679" role="graphics-symbol" aria-roledescription="bar" d="M121,135.48149999999998h18v14.518500000000017h-18Z" fill="#008080"/><path aria-label="Citizenship Country: ECUADOR; Arrests: 9209" role="graphics-symbol" aria-roledescription="bar" d="M141,136.1865h18v13.813500000000005h-18Z" fill="#008080"/><path aria-label="Citizenship Country: CUBA; Arrests: 5999" role="graphics-symbol" aria-roledescription="bar" d="M161,141.0015h18v8.998500000000007h-18Z" fill="#008080"/><path aria-label="Citizenship Country: DOMINICAN REPUBLIC; Arrests: 4890" role="graphics-symbol" aria-roledescription="bar" d="M181,142.66500000000002h18v7.3349999999999795h-18Z" fill="#008080"/></g><g class="mark-group role-title"><g transform="translate(100,-32)"><path class="background" aria-hidden="true" d="M0,0h0v0h0Z" pointer-events="none"/><g><g class="mark-text role-title-text" role="graphics-symbol" aria-roledescription="title" aria-label="Title text 'Top 10 Countries of Origin'" pointer-events="none"><text text-anchor="middle" transform="translate(0,16)" font-family="Arial" font-size="20px" font-weight="bold" fill="#000000" opacity="1">Top 10 Countries of Origin</text></g></g><path class="foreground" aria-hidden="true" d="" pointer-events="none" display="none"/></g></g></g><path class="foreground" aria-hidden="true" d="" display="none"/></g></g></g></svg>