<svg xmlns="http://www.w3.org/2000/svg" xmlns:xlink="http://www.w3.org/1999/xlink" version="1.1" class="marks" width="366" height="267" viewBox="0 0 366 267"><rect width="366" height="267" fill="white"/><g fill="none" stroke-miterlimit="10" transform="translate(60,27)"><g class="mark-group role-frame root" role="graphics-object" aria-roledescription="group mark container"><g transform="translate(0,0)"><path class="background" aria-hidden="true" d="M0.5,0.5h300v200h-300Z" stroke="#ddd"/><g><g class="mark-group role-axis" aria-hidden="true"><g transform="translate(0.5,200.5)"><path class="background" aria-hidden="true" d="M0,0h0v0h0Z" pointer-events="none"/><g><g class="mark-rule role-axis-grid" pointer-events="none"><line transform="translate(0,-200)" x2="0" y2="200" stroke="#ddd" stroke-width="1" opacity="1"/><line transform="translate(43,-200)" x2="0" y2="200" stroke="#ddd" stroke-width="1" opacity="1"/><line transform="translate(86,-200)" x2="0" y2="200" stroke="#ddd" stroke-width="1" opacity="1"/><line transform="translate(129,-200)" x2="0" y2="200" stroke="#ddd" stroke-width="1" opacity="1"/><line transform="translate(171,-200)" x2="0" y2="200" stroke="#ddd" stroke-width="1" opacity="1"/><line transform="translate(214,-200)" x2="0" y2="200" stroke="#ddd" stroke-width="1" opacity="1"/><line transform="translate(257,-200)" x2="0" y2="200" stroke="#ddd" stroke-width="1" opacity="1"/><line transform="translate(300,-200)" x2="0" y2="200" stroke="#ddd" stroke-width="1" opacity="1"/></g></g><path class="foreground" aria-hidden="true" d="" pointer-events="none" display="none"/></g></g><g class="mark-group role-axis" aria-hidden="true"><g transform="translate(0.5,0.5)"><path class="background" aria-hidden="true" d="M0,0h0v0h0Z" pointer-events="none"/><g><g class="mark-rule role-axis-grid" pointer-events="none"><line transform="translate(0,200)" x2="300" y2="0" stroke="#ddd" stroke-width="1" opacity="1"/><line transform="translate(0,144)" x2="300" y2="0" stroke="#ddd" stroke-width="1" opacity="1"/><line transform="translate(0,89)" x2="300" y2="0" stroke="#ddd" stroke-width="1" opacity="1"/><line transform="translate(0,33)" x2="300" y2="0" stroke="#ddd" stroke-width="1" opacity="1"/></g></g><path class="foreground" aria-hidden="true" d="" pointer-events="none" display="none"/></g></g><g class="mark-group role-axis" role="graphics-symbol" aria-roledescription="axis" aria-label="X-axis titled 'Number of Days' for a linear scale with values from 0 to 700"><g transform="translate(0.5,200.5)"><path class="background" aria-hidden="true" d="M0,0h0v0h0Z" pointer-events="none"/><g><g class="mark-rule role-axis-tick" pointer-events="none"><line transform="translate(0,0)" x2="0" y2="5" stroke="#888" stroke-width="1" opacity="1"/><line transform="translate(43,0)" x2="0" y2="5" stroke="#888" stroke-width="1" opacity="1"/><line transform="translate(86,0)" x2="0" y2="5" stroke="#888" stroke-width="1" opacity="1"/><line transform="translate(129,0)" x2="0" y2="5" stroke="#888" stroke-width="1" opacity="1"/><line transform="translate(171,0)" x2="0" y2="5" stroke="#888" stroke-width="1" opacity="1"/><line transform="translate(214,0)" x2="0" y2="5" stroke="#888" stroke-width="1" opacity="1"/><line transform="translate(257,0)" x2="0" y2="5" stroke="#888" stroke-width="1" opacity="1"/><line transform="translate(300,0)" x2="0" y2="5" stroke="#888" stroke-width="1" opacity="1"/></g><g class="mark-text role-axis-label" pointer-events="none"><text text-anchor="start" transform="translate(0,16)" font-family="Arial" font-size="12px" fill="#000000" opacity="1">0</text><text text-anchor="middle" transform="translate(42.857142857142854,16)" font-family="Arial" font-size="12px" fill="#000000" opacity="1">100</text><text text-anchor="middle" transform="translate(85.71428571428571,16)" font-family="Arial" font-size="12px" fill="#000000" opacity="1">200</text><text text-anchor="middle" transform="translate(128.57142857142856,16)" font-family="Arial" font-size="12px" fill="#000000" opacity="1">300</text><text text-anchor="middle" transform="translate(171.42857142857142,16)" font-family="Arial" font-size="12px" fill="#000000" opacity="1">400</text><text text-anchor="middle" transform="translate(214.28571428571428,16)" font-family="Arial" font-size="12px" fill="#000000" opacity="1">500</text><text text-anchor="middle" transform="translate(257.1428571428571,16)" font-family="Arial" font-size="12px" fill="#000000" opacity="1">600</text><text text-anchor="end" transform="translate(300,16)" font-family="Arial" font-size="12px" fill="#000000" opacity="1">700</text></g><g class="mark-rule role-axis-domain" pointer-events="none"><line transform="translate(0,0)" x2="300" y2="0" stroke="#888" stroke-width="1" opacity="1"/></g><g class="mark-text role-axis-title" pointer-events="none"><text text-anchor="middle" transform="translate(150,32)" font-family="Arial" font-size="13px" font-weight="bold" fill="#000000" opacity="1">Number of Days</text></g></g><path class="foreground" aria-hidden="true" d="" pointer-events="none" display="none"/></g></g><g class="mark-group role-axis" role="graphics-symbol" aria-roledescription="axis" aria-label="Y-axis titled 'Density' for a linear scale with values from 0.000 to 0.018"><g transform="translate(0.5,0.5)"><path class="background" aria-hidden="true" d="M0,0h0v0h0Z" pointer-events="none"/><g><g class="mark-rule role-axis-tick" pointer-events="none"><line transform="translate(0,200)" x2="-5" y2="0" stroke="#888" stroke-width="1" opacity="1"/><line transform="translate(0,144)" x2="-5" y2="0" stroke="#888" stroke-width="1" opacity="1"/><line transform="translate(0,89)" x2="-5" y2="0" stroke="#888" stroke-width="1" opacity="1"/><line transform="translate(0,33)" x2="-5" y2="0" stroke="#888" stroke-width="1" opacity="1"/></g><g class="mark-text role-axis-label" pointer-events="none"><text text-anchor="end" transform="translate(-7,204)" font-family="Arial" font-size="12px" fill="#000000" opacity="1">0.000</text><text text-anchor="end" transform="translate(-7,148.44444444444443)" font-family="Arial" font-size="12px" fill="#000000" opacity="1">0.005</text><text text-anchor="end" transform="translate(-7,92.88888888888889)" font-family="Arial" font-size="12px" fill="#000000" opacity="1">0.010</text><text text-anchor="end" transform="translate(-7,37.33333333333333)" font-family="Arial" font-size="12px" fill="#000000" opacity="1">0.015</text></g><g class="mark-rule role-axis-domain" pointer-events="none"><line transform="translate(0,200)" x2="0" y2="-200" stroke="#888" stroke-width="1" opacity="1"/></g><g class="mark-text role-axis-title" pointer-events="none"><text text-anchor="middle" transform="translate(-41.029296875,100) rotate(-90) translate(0,-3)" font-family="Arial" font-size="13px" font-weight="bold" fill="#000000" opacity="1">Density</text></g></g><path class="foreground" aria-hidden="true" d="" pointer-events="none" display="none"/></g></g><g class="mark-area role-mark layer_0_marks" role="graphics-object" aria-roledescription="area mark container"><path aria-label="Number of Days: 1; Density: 0.0141383490459" role="graphics-symbol" aria-roledescription="area mark" d="M0.429,42.907L1.901,10.999L3.373,18.848L4.845,22.735L6.317,22.426L7.789,27.95L9.261,38.298L10.734,50.555L12.206,62.547L13.678,74.74L15.15,86.495L16.622,97.581L18.094,107.423L19.566,116.511L21.039,124.877L22.511,132.517L23.983,138.781L25.455,144.344L26.927,149.473L28.399,153.839L29.871,157.338L31.344,160.825L32.816,164.097L34.288,166.937L35.76,169.233L37.232,171.346L38.704,173.498L40.176,175.449L41.649,177.001L43.121,178.475L44.593,180.088L46.065,181.552L47.537,182.757L49.009,183.975L50.481,185.013L51.954,185.719L53.426,186.433L54.898,187.428L56.37,188.341L57.842,188.888L59.314,189.546L60.786,190.405L62.259,190.997L63.731,191.208L65.203,191.394L66.675,191.731L68.147,192.193L69.619,192.611L71.091,192.894L72.564,193.185L74.036,193.601L75.508,193.8L76.98,193.759L78.452,193.873L79.924,194.211L81.396,194.543L82.869,194.769L84.341,194.919L85.813,195.027L87.285,195.068L88.757,195.176L90.229,195.403L91.701,195.697L93.174,196.006L94.646,196.259L96.118,196.355L97.59,196.367L99.062,196.392L100.534,196.463L102.006,196.478L103.479,196.404L104.951,196.413L106.423,196.626L107.895,196.925L109.367,197.189L110.839,197.335L112.311,197.387L113.784,197.371L115.256,197.423L116.728,197.582L118.2,197.77L119.672,197.895L121.144,197.935L122.616,197.919L124.089,197.946L125.561,198.005L127.033,198.061L128.505,198.053L129.977,197.965L131.449,197.896L132.921,197.896L134.394,197.972L135.866,198.084L137.338,198.15L138.81,198.204L140.282,198.282L141.754,198.321L143.226,198.343L144.699,198.461L146.171,198.637L147.643,198.763L149.115,198.835L150.587,198.813L152.059,198.711L153.531,198.63L155.004,198.626L156.476,198.667L157.948,198.694L159.42,198.664L160.892,198.683L162.364,198.807L163.836,198.885L165.309,198.852L166.781,198.836L168.253,198.85L169.725,198.857L171.197,198.912L172.669,199.01L174.141,199.085L175.614,199.091L177.086,199.065L178.558,199.052L180.03,199.06L181.502,199.107L182.974,199.173L184.446,199.233L185.919,199.296L187.391,199.352L188.863,199.357L190.335,199.315L191.807,199.284L193.279,199.267L194.751,199.243L196.224,199.209L197.696,199.167L199.168,199.132L200.64,199.107L202.112,199.133L203.584,199.216L205.056,199.304L206.529,199.358L208.001,199.392L209.473,199.433L210.945,199.455L212.417,199.471L213.889,199.511L215.361,199.552L216.834,199.562L218.306,199.56L219.778,199.567L221.25,199.59L222.722,199.62L224.194,199.621L225.666,199.574L227.139,199.505L228.611,199.468L230.083,199.495L231.555,199.539L233.027,199.571L234.499,199.586L235.971,199.588L237.444,199.598L238.916,199.648L240.388,199.717L241.86,199.757L243.332,199.783L244.804,199.805L246.276,199.789L247.749,199.78L249.221,199.801L250.693,199.787L252.165,199.755L253.637,199.769L255.109,199.794L256.581,199.799L258.054,199.798L259.526,199.809L260.998,199.81L262.47,199.798L263.942,199.805L265.414,199.832L266.886,199.852L268.359,199.862L269.831,199.861L271.303,199.848L272.775,199.845L274.247,199.867L275.719,199.89L277.191,199.901L278.664,199.916L280.136,199.926L281.608,199.929L283.08,199.936L284.552,199.946L286.024,199.951L287.496,199.948L288.969,199.952L290.441,199.969L291.913,199.977L293.385,199.978L294.857,199.984L294.857,200L293.385,200L291.913,200L290.441,200L288.969,200L287.496,200L286.024,200L284.552,200L283.08,200L281.608,200L280.136,200L278.664,200L277.191,200L275.719,200L274.247,200L272.775,200L271.303,200L269.831,200L268.359,200L266.886,200L265.414,200L263.942,200L262.47,200L260.998,200L259.526,200L258.054,200L256.581,200L255.109,200L253.637,200L252.165,200L250.693,200L249.221,200L247.749,200L246.276,200L244.804,200L243.332,200L241.86,200L240.388,200L238.916,200L237.444,200L235.971,200L234.499,200L233.027,200L231.555,200L230.083,200L228.611,200L227.139,200L225.666,200L224.194,200L222.722,200L221.25,200L219.778,200L218.306,200L216.834,200L215.361,200L213.889,200L212.417,200L210.945,200L209.473,200L208.001,200L206.529,200L205.056,200L203.584,200L202.112,200L200.64,200L199.168,200L197.696,200L196.224,200L194.751,200L193.279,200L191.807,200L190.335,200L188.863,200L187.391,200L185.919,200L184.446,200L182.974,200L181.502,200L180.03,200L178.558,200L177.086,200L175.614,200L174.141,200L172.669,200L171.197,200L169.725,200L168.253,200L166.781,200L165.309,200L163.836,200L162.364,200L160.892,200L159.42,200L157.948,200L156.476,200L155.004,200L153.531,200L152.059,200L150.587,200L149.115,200L147.643,200L146.171,200L144.699,200L143.226,200L141.754,200L140.282,200L138.81,200L137.338,200L135.866,200L134.394,200L132.921,200L131.449,200L129.977,200L128.505,200L127.033,200L125.561,200L124.089,200L122.616,200L121.144,200L119.672,200L118.2,200L116.728,200L115.256,200L113.784,200L112.311,200L110.839,200L109.367,200L107.895,200L106.423,200L104.951,200L103.479,200L102.006,200L100.534,200L99.062,200L97.59,200L96.118,200L94.646,200L93.174,200L91.701,200L90.229,200L88.757,200L87.285,200L85.813,200L84.341,200L82.869,200L81.396,200L79.924,200L78.452,200L76.98,200L75.508,200L74.036,200L72.564,200L71.091,200L69.619,200L68.147,200L66.675,200L65.203,200L63.731,200L62.259,200L60.786,200L59.314,200L57.842,200L56.37,200L54.898,200L53.426,200L51.954,200L50.481,200L49.009,200L47.537,200L46.065,200L44.593,200L43.121,200L41.649,200L40.176,200L38.704,200L37.232,200L35.76,200L34.288,200L32.816,200L31.344,200L29.871,200L28.399,200L26.927,200L25.455,200L23.983,200L22.511,200L21.039,200L19.566,200L18.094,200L16.622,200L15.15,200L13.678,200L12.206,200L10.734,200L9.261,200L7.789,200L6.317,200L4.845,200L3.373,200L1.901,200L0.429,200Z" fill="#008080"/></g><g class="mark-rule role-mark layer_1_marks" role="graphics-object" aria-roledescription="rule mark container"><line aria-label="days_to_departure: 55.672957958" role="graphics-symbol" aria-roledescription="rule mark" transform="translate(23.859839124839123,0)" x2="0" y2="200" stroke="red" stroke-width="2"/></g><g class="mark-text role-mark layer_2_marks" role="graphics-object" aria-roledescription="text mark container"><text aria-label="days_to_departure: 55.672957958; label: Mean = 56 days" role="graphics-symbol" aria-roledescription="text mark" text-anchor="start" transform="translate(28.859839124839123,8.018)" font-family="sans-serif" font-size="11px" fill="red">Mean = 56 days</text></g><g class="mark-group role-title"><g transform="translate(150,-22)"><path class="background" aria-hidden="true" d="M0,0h0v0h0Z" pointer-events="none"/><g><g class="mark-text role-title-text" role="graphics-symbol" aria-roledescription="title" aria-label="Title text 'Days Between Arrest and Departure'" pointer-events="none"><text text-anchor="middle" transform="translate(0,13)" font-family="Arial" font-size="16px" font-weight="bold" fill="#000000" opacity="1">Days Between Arrest and Departure</text></g></g><path class="foreground" aria-hidden="true" d="" pointer-events="none" display="none"/></g></g></g><path class="foreground" aria-hidden="true" d="" display="none"/></g></g></g></svg>