<svg xmlns="http://www.w3.org/2000/svg" xmlns:xlink="http://www.w3.org/1999/xlink" version="1.1" class="marks" width="403" height="300" viewBox="0 0 403 300"><rect width="403" height="300" fill="white"/><g fill="none" stroke-miterlimit="10" transform="translate(63,65)"><g class="mark-group role-frame root" role="graphics-object" aria-roledescription="group mark container"><g transform="translate(0,0)"><path class="background" aria-hidden="true" d="M0,0h200v200h-200Z"/><g><g class="mark-arc role-mark layer_0_marks" role="graphics-object" aria-roledescription="arc mark container"><path aria-label="Percent of Total Arrests: 92.8729555592; Deportation Status: Yes" role="graphics-symbol" aria-roledescription="arc mark" transform="translate(100,100)" d="M0,-130A130,130,0,1,0,56.288,-117.182L0,0Z" fill="rgb(47, 144, 144)"/><path aria-label="Percent of Total Arrests: 7.12704444077; Deportation Status: No" role="graphics-symbol" aria-roledescription="arc mark" transform="translate(100,100)" d="M56.288,-117.182A130,130,0,0,0,0,-130L0,0Z" fill="rgb(110, 184, 183)"/></g><g class="mark-text role-mark layer_1_marks" role="graphics-object" aria-roledescription="text mark container"><text aria-label="Percent of Total Arrests: 92.8729555592; Deportation Status: Yes; label: 93%" role="graphics-symbol" aria-roledescription="text mark" text-anchor="middle" transform="translate(37.21668558595642,-25.702928166079545)" font-family="sans-serif" font-size="18px" fill="rgb(47, 144, 144)">93%</text><text aria-label="Percent of Total Arrests: 7.12704444077; Deportation Status: No; label: 7%" role="graphics-symbol" aria-roledescription="text mark" text-anchor="middle" transform="translate(162.78331441404353,-25.702928166079573)" font-family="sans-serif" font-size="18px" fill="rgb(110, 184, 183)">7%</text></g><g class="mark-group role-legend" role="graphics-symbol" aria-roledescription="legend" aria-label="Symbol legend titled 'Deportation Status' for fill color with 2 values: No, Yes"><g transform="translate(218,0)"><path class="background" aria-hidden="true" d="M0,0h117v44h-117Z" pointer-events="none"/><g><g class="mark-group role-legend-entry"><g transform="translate(0,18)"><path class="background" aria-hidden="true" d="M0,0h0v0h0Z" pointer-events="none"/><g><g class="mark-group role-scope" role="graphics-object" aria-roledescription="group mark container"><g transform="translate(0,0)"><path class="background" aria-hidden="true" d="M0,0h35.576171875v12h-35.576171875Z" pointer-events="none" opacity="1"/><g><g class="mark-symbol role-legend-symbol" pointer-events="none"><path transform="translate(6,6)" d="M5,0A5,5,0,1,1,-5,0A5,5,0,1,1,5,0" fill="rgb(110, 184, 183)" stroke-width="1.5" opacity="1"/></g><g class="mark-text role-legend-label" pointer-events="none"><text text-anchor="start" transform="translate(16,10)" font-family="Arial" font-size="12px" fill="#000000" opacity="1">No</text></g></g><path class="foreground" aria-hidden="true" d="" pointer-events="none" display="none"/></g><g transform="translate(0,14)"><path class="background" aria-hidden="true" d="M0,0h35.576171875v12h-35.576171875Z" pointer-events="none" opacity="1"/><g><g class="mark-symbol role-legend-symbol" pointer-events="none"><path transform="translate(6,6)" d="M5,0A5,5,0,1,1,-5,0A5,5,0,1,1,5,0" fill="rgb(47, 144, 144)" stroke-width="1.5" opacity="1"/></g><g class="mark-text role-legend-label" pointer-events="none"><text text-anchor="start" transform="translate(16,10)" font-family="Arial" font-size="12px" fill="#000000" opacity="1">Yes</text></g></g><path class="foreground" aria-hidden="true" d="" pointer-events="none" display="none"/></g></g></g><path class="foreground" aria-hidden="true" d="" pointer-events="none" display="none"/></g></g><g class="mark-text role-legend-title" pointer-events="none"><text text-anchor="start" transform="translate(0,10)" font-family="Arial" font-size="13px" font-weight="bold" fill="#000000" opacity="1">Deportation Status</text></g></g><path class="foreground" aria-hidden="true" d="" pointer-events="none" display="none"/></g></g><g class="mark-group role-title"><g transform="translate(100,-59.70292816607957)"><path class="background" aria-hidden="true" d="M0,0h0v0h0Z" pointer-events="none"/><g><g class="mark-text role-title-text" role="graphics-symbol" aria-roledescription="title" aria-label="Title text 'Share of Arrests Resulting in Deportation'" pointer-events="none"><text text-anchor="middle" transform="translate(0,13)" font-family="Arial" font-size="16px" font-weight="bold" fill="#000000" opacity="1">Share of Arrests Resulting in Deportation</text></g></g><path class="foreground" aria-hidden="true" d="" pointer-events="none" display="none"/></g></g></g><path class="foreground" aria-hidden="true" d="" display="none"/></g></g></g></svg>