<svg xmlns="http://www.w3.org/2000/svg" xmlns:xlink="http://www.w3.org/1999/xlink" version="1.1" class="marks" width="592" height="365" viewBox="0 0 592 365"><rect width="592" height="365" fill="white"/><g fill="none" stroke-miterlimit="10" transform="translate(66,25)"><g class="mark-group role-frame root" role="graphics-object" aria-roledescription="group mark container"><g transform="translate(0,0)"><path class="background" aria-hidden="true" d="M0.5,0.5h400v300h-400Z" stroke="#ddd"/><g><g class="mark-group role-axis" aria-hidden="true"><g transform="translate(0.5,300.5)"><path class="background" aria-hidden="true" d="M0,0h0v0h0Z" pointer-events="none"/><g><g class="mark-rule role-axis-grid" pointer-events="none"><line transform="translate(19,-300)" x2="0" y2="300" stroke="#ddd" stroke-width="1" opacity="1"/><line transform="translate(76,-300)" x2="0" y2="300" stroke="#ddd" stroke-width="1" opacity="1"/><line transform="translate(133,-300)" x2="0" y2="300" stroke="#ddd" stroke-width="1" opacity="1"/><line transform="translate(190,-300)" x2="0" y2="300" stroke="#ddd" stroke-width="1" opacity="1"/><line transform="translate(248,-300)" x2="0" y2="300" stroke="#ddd" stroke-width="1" opacity="1"/><line transform="translate(306,-300)" x2="0" y2="300" stroke="#ddd" stroke-width="1" opacity="1"/><line transform="translate(362,-300)" x2="0" y2="300" stroke="#ddd" stroke-width="1" opacity="1"/></g></g><path class="foreground" aria-hidden="true" d="" pointer-events="none" display="none"/></g></g><g class="mark-group role-axis" aria-hidden="true"><g transform="translate(0.5,0.5)"><path class="background" aria-hidden="true" d="M0,0h0v0h0Z" pointer-events="none"/><g><g class="mark-rule role-axis-grid" pointer-events="none"><line transform="translate(0,300)" x2="400" y2="0" stroke="#ddd" stroke-width="1" opacity="1"/><line transform="translate(0,246)" x2="400" y2="0" stroke="#ddd" stroke-width="1" opacity="1"/><line transform="translate(0,193)" x2="400" y2="0" stroke="#ddd" stroke-width="1" opacity="1"/><line transform="translate(0,139)" x2="400" y2="0" stroke="#ddd" stroke-width="1" opacity="1"/><line transform="translate(0,86)" x2="400" y2="0" stroke="#ddd" stroke-width="1" opacity="1"/><line transform="translate(0,32)" x2="400" y2="0" stroke="#ddd" stroke-width="1" opacity="1"/></g></g><path class="foreground" aria-hidden="true" d="" pointer-events="none" display="none"/></g></g><g class="mark-group role-axis" role="graphics-symbol" aria-roledescription="axis" aria-label="X-axis titled 'Date (Month &amp; Year)' for a time scale with values from September 2023 to June 2025"><g transform="translate(0.5,300.5)"><path class="background" aria-hidden="true" d="M0,0h0v0h0Z" pointer-events="none"/><g><g class="mark-rule role-axis-tick" pointer-events="none"><line transform="translate(19,0)" x2="0" y2="5" stroke="#888" stroke-width="1" opacity="1"/><line transform="translate(76,0)" x2="0" y2="5" stroke="#888" stroke-width="1" opacity="1"/><line transform="translate(133,0)" x2="0" y2="5" stroke="#888" stroke-width="1" opacity="1"/><line transform="translate(190,0)" x2="0" y2="5" stroke="#888" stroke-width="1" opacity="1"/><line transform="translate(248,0)" x2="0" y2="5" stroke="#888" stroke-width="1" opacity="1"/><line transform="translate(306,0)" x2="0" y2="5" stroke="#888" stroke-width="1" opacity="1"/><line transform="translate(362,0)" x2="0" y2="5" stroke="#888" stroke-width="1" opacity="1"/></g><g class="mark-text role-axis-label" pointer-events="none"><text text-anchor="middle" transform="translate(18.779342723004692,16)" font-family="Arial" font-size="12px" fill="#000000" opacity="1">Oct 2023</text><text text-anchor="middle" transform="translate(76.39540949400104,16)" font-family="Arial" font-size="12px" fill="#000000" opacity="1">Jan 2024</text><text text-anchor="middle" transform="translate(133.33333333333331,16)" font-family="Arial" font-size="12px" fill="#000000" opacity="1">Apr 2024</text><text text-anchor="middle" transform="translate(190.29733959311423,16)" font-family="Arial" font-size="12px" fill="#000000" opacity="1">Jul 2024</text><text text-anchor="middle" transform="translate(247.88732394366195,16)" font-family="Arial" font-size="12px" fill="#000000" opacity="1">Oct 2024</text><text text-anchor="middle" transform="translate(305.5033907146583,16)" font-family="Arial" font-size="12px" fill="#000000" opacity="1">Jan 2025</text><text text-anchor="middle" transform="translate(361.8153364632238,16)" font-family="Arial" font-size="12px" fill="#000000" opacity="1">Apr 2025</text></g><g class="mark-rule role-axis-domain" pointer-events="none"><line transform="translate(0,0)" x2="400" y2="0" stroke="#888" stroke-width="1" opacity="1"/></g><g class="mark-text role-axis-title" pointer-events="none"><text text-anchor="middle" transform="translate(200,32)" font-family="Arial" font-size="13px" font-weight="bold" fill="#000000" opacity="1">Date (Month &amp; Year)</text></g></g><path class="foreground" aria-hidden="true" d="" pointer-events="none" display="none"/></g></g><g class="mark-group role-axis" role="graphics-symbol" aria-roledescription="axis" aria-label="Y-axis titled 'Total Monthly Arrests' for a linear scale with values from 0 to 28,000"><g transform="translate(0.5,0.5)"><path class="background" aria-hidden="true" d="M0,0h0v0h0Z" pointer-events="none"/><g><g class="mark-rule role-axis-tick" pointer-events="none"><line transform="translate(0,300)" x2="-5" y2="0" stroke="#888" stroke-width="1" opacity="1"/><line transform="translate(0,246)" x2="-5" y2="0" stroke="#888" stroke-width="1" opacity="1"/><line transform="translate(0,193)" x2="-5" y2="0" stroke="#888" stroke-width="1" opacity="1"/><line transform="translate(0,139)" x2="-5" y2="0" stroke="#888" stroke-width="1" opacity="1"/><line transform="translate(0,86)" x2="-5" y2="0" stroke="#888" stroke-width="1" opacity="1"/><line transform="translate(0,32)" x2="-5" y2="0" stroke="#888" stroke-width="1" opacity="1"/></g><g class="mark-text role-axis-label" pointer-events="none"><text text-anchor="end" transform="translate(-7,304)" font-family="Arial" font-size="12px" fill="#000000" opacity="1">0</text><text text-anchor="end" transform="translate(-7,250.42857142857142)" font-family="Arial" font-size="12px" fill="#000000" opacity="1">5,000</text><text text-anchor="end" transform="translate(-7,196.85714285714283)" font-family="Arial" font-size="12px" fill="#000000" opacity="1">10,000</text><text text-anchor="end" transform="translate(-7,143.28571428571428)" font-family="Arial" font-size="12px" fill="#000000" opacity="1">15,000</text><text text-anchor="end" transform="translate(-7,89.71428571428571)" font-family="Arial" font-size="12px" fill="#000000" opacity="1">20,000</text><text text-anchor="end" transform="translate(-7,36.14285714285713)" font-family="Arial" font-size="12px" fill="#000000" opacity="1">25,000</text></g><g class="mark-rule role-axis-domain" pointer-events="none"><line transform="translate(0,300)" x2="0" y2="-300" stroke="#888" stroke-width="1" opacity="1"/></g><g class="mark-text role-axis-title" pointer-events="none"><text text-anchor="middle" transform="translate(-47.703125,150) rotate(-90) translate(0,-3)" font-family="Arial" font-size="13px" font-weight="bold" fill="#000000" opacity="1">Total Monthly Arrests</text></g></g><path class="foreground" aria-hidden="true" d="" pointer-events="none" display="none"/></g></g><g class="mark-group role-scope pathgroup" role="graphics-object" aria-roledescription="group mark container"><g transform="translate(0,0)"><path class="background" aria-hidden="true" d="M0,0h400v300h-400Z"/><g><g class="mark-area role-mark marks" role="graphics-object" aria-roledescription="area mark container"><path aria-label="Date (Month &amp; Year): Sep 2023; Total Monthly Arrests: 4575; different_country_label: No" role="graphics-symbol" aria-roledescription="area mark" d="M0,189.504L18.779,195.289L38.185,207.771L56.99,197.721L76.395,212.293L95.801,200.732L113.954,202.275L133.333,195.879L152.113,195.086L171.518,213.525L190.297,204.075L209.703,207.932L229.108,215.454L247.887,204.257L267.293,218.014L286.098,215.443L305.503,179.218L324.909,128.079L342.436,113.786L361.815,121.929L380.595,73.629L400,2.646L400,135.45L380.595,202.425L361.815,239.754L342.436,236.968L324.909,241.296L305.503,258.021L286.098,272.068L267.293,273.836L247.887,266.614L229.108,269.893L209.703,268.736L190.297,265.318L171.518,267.289L152.113,258.686L133.333,258.986L113.954,257.914L95.801,257.646L76.395,261.182L56.99,246.279L38.185,257.357L18.779,246.118L0,238.521Z" fill="#6C99BF"/></g></g><path class="foreground" aria-hidden="true" d="" display="none"/></g><g transform="translate(0,0)"><path class="background" aria-hidden="true" d="M0,0h400v300h-400Z"/><g><g class="mark-area role-mark marks" role="graphics-object" aria-roledescription="area mark container"><path aria-label="Date (Month &amp; Year): Sep 2023; Total Monthly Arrests: 5678; different_country_label: Unknown" role="graphics-symbol" aria-roledescription="area mark" d="M0,238.521L18.779,246.118L38.185,257.357L56.99,246.279L76.395,261.182L95.801,257.646L113.954,257.914L133.333,258.986L152.113,258.686L171.518,267.289L190.297,265.318L209.703,268.736L229.108,269.893L247.887,266.614L267.293,273.836L286.098,272.068L305.503,258.021L324.909,241.296L342.436,236.968L361.815,239.754L380.595,202.425L400,135.45L400,295.811L380.595,297.461L361.815,297.857L342.436,296.164L324.909,294.204L305.503,296.004L286.098,298.693L267.293,299.036L247.887,298.704L229.108,299.229L209.703,299.121L190.297,298.907L171.518,299.271L152.113,299.154L133.333,299.304L113.954,299.282L95.801,299.507L76.395,299.529L56.99,299.421L38.185,299.571L18.779,299.336L0,299.357Z" fill="#D4D3E6"/></g></g><path class="foreground" aria-hidden="true" d="" display="none"/></g><g transform="translate(0,0)"><path class="background" aria-hidden="true" d="M0,0h400v300h-400Z"/><g><g class="mark-area role-mark marks" role="graphics-object" aria-roledescription="area mark container"><path aria-label="Date (Month &amp; Year): Sep 2023; Total Monthly Arrests: 60; different_country_label: Yes" role="graphics-symbol" aria-roledescription="area mark" d="M0,299.357L18.779,299.336L38.185,299.571L56.99,299.421L76.395,299.529L95.801,299.507L113.954,299.282L133.333,299.304L152.113,299.154L171.518,299.271L190.297,298.907L209.703,299.121L229.108,299.229L247.887,298.704L267.293,299.036L286.098,298.693L305.503,296.004L324.909,294.204L342.436,296.164L361.815,297.857L380.595,297.461L400,295.811L400,300L380.595,300L361.815,300L342.436,300L324.909,300L305.503,300L286.098,300L267.293,300L247.887,300L229.108,300L209.703,300L190.297,300L171.518,300L152.113,300L133.333,300L113.954,300L95.801,300L76.395,300L56.99,300L38.185,300L18.779,300L0,300Z" fill="#00796B"/></g></g><path class="foreground" aria-hidden="true" d="" display="none"/></g></g><g class="mark-group role-legend" role="graphics-symbol" aria-roledescription="legend" aria-label="Symbol legend titled 'Does citizenship country differ from departure country?' for fill color with 3 values: No, Yes, Unknown"><g transform="translate(418,0)"><path class="background" aria-hidden="true" d="M0,0h103v93h-103Z" pointer-events="none"/><g><g class="mark-group role-legend-entry"><g transform="translate(0,53)"><path class="background" aria-hidden="true" d="M0,0h0v0h0Z" pointer-events="none"/><g><g class="mark-group role-scope" role="graphics-object" aria-roledescription="group mark container"><g transform="translate(0,0)"><path class="background" aria-hidden="true" d="M0,0h66.02734375v12h-66.02734375Z" pointer-events="none" opacity="1"/><g><g class="mark-symbol role-legend-symbol" pointer-events="none"><path transform="translate(6,6)" d="M5,0A5,5,0,1,1,-5,0A5,5,0,1,1,5,0" fill="#6C99BF" stroke-width="1.5" opacity="1"/></g><g class="mark-text role-legend-label" pointer-events="none"><text text-anchor="start" transform="translate(16,10)" font-family="Arial" font-size="12px" fill="#000000" opacity="1">No</text></g></g><path class="foreground" aria-hidden="true" d="" pointer-events="none" display="none"/></g><g transform="translate(0,14)"><path class="background" aria-hidden="true" d="M0,0h66.02734375v12h-66.02734375Z" pointer-events="none" opacity="1"/><g><g class="mark-symbol role-legend-symbol" pointer-events="none"><path transform="translate(6,6)" d="M5,0A5,5,0,1,1,-5,0A5,5,0,1,1,5,0" fill="#00796B" stroke-width="1.5" opacity="1"/></g><g class="mark-text role-legend-label" pointer-events="none"><text text-anchor="start" transform="translate(16,10)" font-family="Arial" font-size="12px" fill="#000000" opacity="1">Yes</text></g></g><path class="foreground" aria-hidden="true" d="" pointer-events="none" display="none"/></g><g transform="translate(0,28)"><path class="background" aria-hidden="true" d="M0,0h66.02734375v12h-66.02734375Z" pointer-events="none" opacity="1"/><g><g class="mark-symbol role-legend-symbol" pointer-events="none"><path transform="translate(6,6)" d="M5,0A5,5,0,1,1,-5,0A5,5,0,1,1,5,0" fill="#D4D3E6" stroke-width="1.5" opacity="1"/></g><g class="mark-text role-legend-label" pointer-events="none"><text text-anchor="start" transform="translate(16,10)" font-family="Arial" font-size="12px" fill="#000000" opacity="1">Unknown</text></g></g><path class="foreground" aria-hidden="true" d="" pointer-events="none" display="none"/></g></g></g><path class="foreground" aria-hidden="true" d="" pointer-events="none" display="none"/></g></g><g class="mark-text role-legend-title" pointer-events="none"><text text-anchor="start" transform="translate(0,10)" font-family="Arial" font-size="13px" font-weight="bold" fill="#000000" opacity="1"><tspan>Does citizenship</tspan><tspan x="0" dy="12">country differ</tspan><tspan x="0" dy="12">from departure</tspan><tspan x="0" dy="12">country?</tspan></text></g></g><path class="foreground" aria-hidden="true" d="" pointer-events="none" display="none"/></g></g><g class="mark-group role-title"><g transform="translate(200,-20)"><path class="background" aria-hidden="true" d="M0,0h0v0h0Z" pointer-events="none"/><g><g class="mark-text role-title-text" role="graphics-symbol" aria-roledescription="title" aria-label="Title text 'ICE Arrests — Origin vs. Departure Country'" pointer-events="none"><text text-anchor="middle" transform="translate(0,13)" font-family="Arial" font-size="16px" font-weight="bold" fill="#000000" opacity="1">ICE Arrests — Origin vs. Departure Country</text></g></g><path class="foreground" aria-hidden="true" d="" pointer-events="none" display="none"/></g></g></g><path class="foreground" aria-hidden="true" d="" display="none"/></g></g></g></svg>