<svg xmlns="http://www.w3.org/2000/svg" xmlns:xlink="http://www.w3.org/1999/xlink" version="1.1" class="marks" width="459" height="264" viewBox="0 0 459 264"><rect width="459" height="264" fill="white"/><g fill="none" stroke-miterlimit="10" transform="translate(53,27)"><g class="mark-group role-frame root" role="graphics-object" aria-roledescription="group mark container"><g transform="translate(0,0)"><path class="background" aria-hidden="true" d="M0.5,0.5h400v200h-400Z" stroke="#ddd"/><g><g class="mark-group role-axis" aria-hidden="true"><g transform="translate(0.5,200.5)"><path class="background" aria-hidden="true" d="M0,0h0v0h0Z" pointer-events="none"/><g><g class="mark-rule role-axis-grid" pointer-events="none"><line transform="translate(0,-200)" x2="0" y2="200" stroke="#ddd" stroke-width="1" opacity="1"/><line transform="translate(29,-200)" x2="0" y2="200" stroke="#ddd" stroke-width="1" opacity="1"/><line transform="translate(57,-200)" x2="0" y2="200" stroke="#ddd" stroke-width="1" opacity="1"/><line transform="translate(86,-200)" x2="0" y2="200" stroke="#ddd" stroke-width="1" opacity="1"/><line transform="translate(114,-200)" x2="0" y2="200" stroke="#ddd" stroke-width="1" opacity="1"/><line transform="translate(143,-200)" x2="0" y2="200" stroke="#ddd" stroke-width="1" opacity="1"/><line transform="translate(171,-200)" x2="0" y2="200" stroke="#ddd" stroke-width="1" opacity="1"/><line transform="translate(200,-200)" x2="0" y2="200" stroke="#ddd" stroke-width="1" opacity="1"/><line transform="translate(229,-200)" x2="0" y2="200" stroke="#ddd" stroke-width="1" opacity="1"/><line transform="translate(257,-200)" x2="0" y2="200" stroke="#ddd" stroke-width="1" opacity="1"/><line transform="translate(286,-200)" x2="0" y2="200" stroke="#ddd" stroke-width="1" opacity="1"/><line transform="translate(314,-200)" x2="0" y2="200" stroke="#ddd" stroke-width="1" opacity="1"/><line transform="translate(343,-200)" x2="0" y2="200" stroke="#ddd" stroke-width="1" opacity="1"/><line transform="translate(371,-200)" x2="0" y2="200" stroke="#ddd" stroke-width="1" opacity="1"/><line transform="translate(400,-200)" x2="0" y2="200" stroke="#ddd" stroke-width="1" opacity="1"/></g></g><path class="foreground" aria-hidden="true" d="" pointer-events="none" display="none"/></g></g><g class="mark-group role-axis" aria-hidden="true"><g transform="translate(0.5,0.5)"><path class="background" aria-hidden="true" d="M0,0h0v0h0Z" pointer-events="none"/><g><g class="mark-rule role-axis-grid" pointer-events="none"><line transform="translate(0,200)" x2="400" y2="0" stroke="#ddd" stroke-width="1" opacity="1"/><line transform="translate(0,150)" x2="400" y2="0" stroke="#ddd" stroke-width="1" opacity="1"/><line transform="translate(0,100)" x2="400" y2="0" stroke="#ddd" stroke-width="1" opacity="1"/><line transform="translate(0,50)" x2="400" y2="0" stroke="#ddd" stroke-width="1" opacity="1"/><line transform="translate(0,0)" x2="400" y2="0" stroke="#ddd" stroke-width="1" opacity="1"/></g></g><path class="foreground" aria-hidden="true" d="" pointer-events="none" display="none"/></g></g><g class="mark-group role-axis" role="graphics-symbol" aria-roledescription="axis" aria-label="X-axis titled 'Number of Days' for a linear scale with values from 0 to 700"><g transform="translate(0.5,200.5)"><path class="background" aria-hidden="true" d="M0,0h0v0h0Z" pointer-events="none"/><g><g class="mark-rule role-axis-tick" pointer-events="none"><line transform="translate(0,0)" x2="0" y2="5" stroke="#888" stroke-width="1" opacity="1"/><line transform="translate(29,0)" x2="0" y2="5" stroke="#888" stroke-width="1" opacity="1"/><line transform="translate(57,0)" x2="0" y2="5" stroke="#888" stroke-width="1" opacity="1"/><line transform="translate(86,0)" x2="0" y2="5" stroke="#888" stroke-width="1" opacity="1"/><line transform="translate(114,0)" x2="0" y2="5" stroke="#888" stroke-width="1" opacity="1"/><line transform="translate(143,0)" x2="0" y2="5" stroke="#888" stroke-width="1" opacity="1"/><line transform="translate(171,0)" x2="0" y2="5" stroke="#888" stroke-width="1" opacity="1"/><line transform="translate(200,0)" x2="0" y2="5" stroke="#888" stroke-width="1" opacity="1"/><line transform="translate(229,0)" x2="0" y2="5" stroke="#888" stroke-width="1" opacity="1"/><line transform="translate(257,0)" x2="0" y2="5" stroke="#888" stroke-width="1" opacity="1"/><line transform="translate(286,0)" x2="0" y2="5" stroke="#888" stroke-width="1" opacity="1"/><line transform="translate(314,0)" x2="0" y2="5" stroke="#888" stroke-width="1" opacity="1"/><line transform="translate(343,0)" x2="0" y2="5" stroke="#888" stroke-width="1" opacity="1"/><line transform="translate(371,0)" x2="0" y2="5" stroke="#888" stroke-width="1" opacity="1"/><line transform="translate(400,0)" x2="0" y2="5" stroke="#888" stroke-width="1" opacity="1"/></g><g class="mark-text role-axis-label" pointer-events="none"><text text-anchor="start" transform="translate(0,15)" font-family="sans-serif" font-size="10px" fill="#000" opacity="1">0</text><text text-anchor="middle" transform="translate(28.57142857142857,15)" font-family="sans-serif" font-size="10px" fill="#000" opacity="1">50</text><text text-anchor="middle" transform="translate(57.14285714285714,15)" font-family="sans-serif" font-size="10px" fill="#000" opacity="1">100</text><text text-anchor="middle" transform="translate(85.71428571428571,15)" font-family="sans-serif" font-size="10px" fill="#000" opacity="1">150</text><text text-anchor="middle" transform="translate(114.28571428571428,15)" font-family="sans-serif" font-size="10px" fill="#000" opacity="1">200</text><text text-anchor="middle" transform="translate(142.85714285714286,15)" font-family="sans-serif" font-size="10px" fill="#000" opacity="1">250</text><text text-anchor="middle" transform="translate(171.42857142857142,15)" font-family="sans-serif" font-size="10px" fill="#000" opacity="1">300</text><text text-anchor="middle" transform="translate(200,15)" font-family="sans-serif" font-size="10px" fill="#000" opacity="1">350</text><text text-anchor="middle" transform="translate(228.57142857142856,15)" font-family="sans-serif" font-size="10px" fill="#000" opacity="1">400</text><text text-anchor="middle" transform="translate(257.14285714285717,15)" font-family="sans-serif" font-size="10px" fill="#000" opacity="1">450</text><text text-anchor="middle" transform="translate(285.7142857142857,15)" font-family="sans-serif" font-size="10px" fill="#000" opacity="1">500</text><text text-anchor="middle" transform="translate(314.2857142857143,15)" font-family="sans-serif" font-size="10px" fill="#000" opacity="1">550</text><text text-anchor="middle" transform="translate(342.85714285714283,15)" font-family="sans-serif" font-size="10px" fill="#000" opacity="1">600</text><text text-anchor="middle" transform="translate(371.42857142857144,15)" font-family="sans-serif" font-size="10px" fill="#000" opacity="1">650</text><text text-anchor="end" transform="translate(400,15)" font-family="sans-serif" font-size="10px" fill="#000" opacity="1">700</text></g><g class="mark-rule role-axis-domain" pointer-events="none"><line transform="translate(0,0)" x2="400" y2="0" stroke="#888" stroke-width="1" opacity="1"/></g><g class="mark-text role-axis-title" pointer-events="none"><text text-anchor="middle" transform="translate(200,30)" font-family="sans-serif" font-size="11px" font-weight="bold" fill="#000" opacity="1">Number of Days</text></g></g><path class="foreground" aria-hidden="true" d="" pointer-events="none" display="none"/></g></g><g class="mark-group role-axis" role="graphics-symbol" aria-roledescription="axis" aria-label="Y-axis titled 'Density' for a linear scale with values from 0.000 to 0.020"><g transform="translate(0.5,0.5)"><path class="background" aria-hidden="true" d="M0,0h0v0h0Z" pointer-events="none"/><g><g class="mark-rule role-axis-tick" pointer-events="none"><line transform="translate(0,200)" x2="-5" y2="0" stroke="#888" stroke-width="1" opacity="1"/><line transform="translate(0,150)" x2="-5" y2="0" stroke="#888" stroke-width="1" opacity="1"/><line transform="translate(0,100)" x2="-5" y2="0" stroke="#888" stroke-width="1" opacity="1"/><line transform="translate(0,50)" x2="-5" y2="0" stroke="#888" stroke-width="1" opacity="1"/><line transform="translate(0,0)" x2="-5" y2="0" stroke="#888" stroke-width="1" opacity="1"/></g><g class="mark-text role-axis-label" pointer-events="none"><text text-anchor="end" transform="translate(-7,203)" font-family="sans-serif" font-size="10px" fill="#000" opacity="1">0.000</text><text text-anchor="end" transform="translate(-7,153)" font-family="sans-serif" font-size="10px" fill="#000" opacity="1">0.005</text><text text-anchor="end" transform="translate(-7,103)" font-family="sans-serif" font-size="10px" fill="#000" opacity="1">0.010</text><text text-anchor="end" transform="translate(-7,53)" font-family="sans-serif" font-size="10px" fill="#000" opacity="1">0.015</text><text text-anchor="end" transform="translate(-7,3)" font-family="sans-serif" font-size="10px" fill="#000" opacity="1">0.020</text></g><g class="mark-rule role-axis-domain" pointer-events="none"><line transform="translate(0,200)" x2="0" y2="-200" stroke="#888" stroke-width="1" opacity="1"/></g><g class="mark-text role-axis-title" pointer-events="none"><text text-anchor="middle" transform="translate(-36.0244140625,100) rotate(-90) translate(0,-2)" font-family="sans-serif" font-size="11px" font-weight="bold" fill="#000" opacity="1">Density</text></g></g><path class="foreground" aria-hidden="true" d="" pointer-events="none" display="none"/></g></g><g class="mark-area role-mark layer_0_marks" role="graphics-object" aria-roledescription="area mark container"><path aria-label="Number of Days: 1; Density: 0.0150421077387" role="graphics-symbol" aria-roledescription="area mark" d="M0.571,49.579L2.534,18.686L4.497,28.147L6.46,35.562L8.423,38.468L10.386,45.441L12.349,55.934L14.311,67.69L16.274,78.82L18.237,89.793L20.2,100.186L22.163,109.947L24.126,118.597L26.089,126.59L28.051,133.945L30.014,140.669L31.977,146.171L33.94,151.062L35.903,155.574L37.866,159.415L39.829,162.485L41.791,165.554L43.754,168.432L45.717,170.93L47.68,172.946L49.643,174.803L51.606,176.697L53.569,178.414L55.531,179.777L57.494,181.072L59.457,182.492L61.42,183.78L63.383,184.838L65.346,185.91L67.309,186.824L69.271,187.442L71.234,188.068L73.197,188.945L75.16,189.75L77.123,190.228L79.086,190.807L81.049,191.564L83.011,192.085L84.974,192.269L86.937,192.432L88.9,192.728L90.863,193.135L92.826,193.504L94.789,193.752L96.751,194.007L98.714,194.374L100.677,194.549L102.64,194.511L104.603,194.611L106.566,194.91L108.529,195.202L110.491,195.4L112.454,195.532L114.417,195.628L116.38,195.663L118.343,195.757L120.306,195.957L122.269,196.216L124.231,196.488L126.194,196.711L128.157,196.795L130.12,196.806L132.083,196.827L134.046,196.89L136.009,196.904L137.971,196.837L139.934,196.845L141.897,197.032L143.86,197.296L145.823,197.529L147.786,197.657L149.749,197.703L151.711,197.687L153.674,197.733L155.637,197.874L157.6,198.04L159.563,198.15L161.526,198.185L163.489,198.17L165.451,198.194L167.414,198.246L169.377,198.295L171.34,198.289L173.303,198.211L175.266,198.15L177.229,198.15L179.191,198.217L181.154,198.315L183.117,198.373L185.08,198.421L187.043,198.489L189.006,198.523L190.969,198.543L192.931,198.646L194.894,198.802L196.857,198.913L198.82,198.976L200.783,198.957L202.746,198.866L204.709,198.795L206.671,198.792L208.634,198.827L210.597,198.852L212.56,198.825L214.523,198.841L216.486,198.951L218.449,199.02L220.411,198.99L222.374,198.976L224.337,198.989L226.3,198.995L228.263,199.043L230.226,199.13L232.189,199.196L234.151,199.201L236.114,199.178L238.077,199.167L240.04,199.173L242.003,199.214L243.966,199.272L245.929,199.325L247.891,199.381L249.854,199.43L251.817,199.435L253.78,199.397L255.743,199.37L257.706,199.356L259.669,199.334L261.631,199.305L263.594,199.268L265.557,199.237L267.52,199.215L269.483,199.237L271.446,199.311L273.409,199.388L275.371,199.436L277.334,199.466L279.297,199.501L281.26,199.521L283.223,199.534L285.186,199.57L287.149,199.606L289.111,199.615L291.074,199.613L293.037,199.619L295,199.64L296.963,199.666L298.926,199.667L300.889,199.626L302.851,199.564L304.814,199.532L306.777,199.556L308.74,199.595L310.703,199.623L312.666,199.636L314.629,199.638L316.591,199.646L318.554,199.69L320.517,199.752L322.48,199.786L324.443,199.809L326.406,199.828L328.369,199.815L330.331,199.806L332.294,199.825L334.257,199.813L336.22,199.785L338.183,199.797L340.146,199.819L342.109,199.823L344.071,199.822L346.034,199.832L347.997,199.833L349.96,199.822L351.923,199.829L353.886,199.852L355.849,199.87L357.811,199.879L359.774,199.878L361.737,199.866L363.7,199.863L365.663,199.883L367.626,199.903L369.589,199.913L371.551,199.926L373.514,199.935L375.477,199.937L377.44,199.943L379.403,199.953L381.366,199.957L383.329,199.954L385.291,199.958L387.254,199.973L389.217,199.98L391.18,199.98L393.143,199.986L393.143,200L391.18,200L389.217,200L387.254,200L385.291,200L383.329,200L381.366,200L379.403,200L377.44,200L375.477,200L373.514,200L371.551,200L369.589,200L367.626,200L365.663,200L363.7,200L361.737,200L359.774,200L357.811,200L355.849,200L353.886,200L351.923,200L349.96,200L347.997,200L346.034,200L344.071,200L342.109,200L340.146,200L338.183,200L336.22,200L334.257,200L332.294,200L330.331,200L328.369,200L326.406,200L324.443,200L322.48,200L320.517,200L318.554,200L316.591,200L314.629,200L312.666,200L310.703,200L308.74,200L306.777,200L304.814,200L302.851,200L300.889,200L298.926,200L296.963,200L295,200L293.037,200L291.074,200L289.111,200L287.149,200L285.186,200L283.223,200L281.26,200L279.297,200L277.334,200L275.371,200L273.409,200L271.446,200L269.483,200L267.52,200L265.557,200L263.594,200L261.631,200L259.669,200L257.706,200L255.743,200L253.78,200L251.817,200L249.854,200L247.891,200L245.929,200L243.966,200L242.003,200L240.04,200L238.077,200L236.114,200L234.151,200L232.189,200L230.226,200L228.263,200L226.3,200L224.337,200L222.374,200L220.411,200L218.449,200L216.486,200L214.523,200L212.56,200L210.597,200L208.634,200L206.671,200L204.709,200L202.746,200L200.783,200L198.82,200L196.857,200L194.894,200L192.931,200L190.969,200L189.006,200L187.043,200L185.08,200L183.117,200L181.154,200L179.191,200L177.229,200L175.266,200L173.303,200L171.34,200L169.377,200L167.414,200L165.451,200L163.489,200L161.526,200L159.563,200L157.6,200L155.637,200L153.674,200L151.711,200L149.749,200L147.786,200L145.823,200L143.86,200L141.897,200L139.934,200L137.971,200L136.009,200L134.046,200L132.083,200L130.12,200L128.157,200L126.194,200L124.231,200L122.269,200L120.306,200L118.343,200L116.38,200L114.417,200L112.454,200L110.491,200L108.529,200L106.566,200L104.603,200L102.64,200L100.677,200L98.714,200L96.751,200L94.789,200L92.826,200L90.863,200L88.9,200L86.937,200L84.974,200L83.011,200L81.049,200L79.086,200L77.123,200L75.16,200L73.197,200L71.234,200L69.271,200L67.309,200L65.346,200L63.383,200L61.42,200L59.457,200L57.494,200L55.531,200L53.569,200L51.606,200L49.643,200L47.68,200L45.717,200L43.754,200L41.791,200L39.829,200L37.866,200L35.903,200L33.94,200L31.977,200L30.014,200L28.051,200L26.089,200L24.126,200L22.163,200L20.2,200L18.237,200L16.274,200L14.311,200L12.349,200L10.386,200L8.423,200L6.46,200L4.497,200L2.534,200L0.571,200Z" fill="#008080"/></g><g class="mark-rule role-mark layer_1_marks" role="graphics-object" aria-roledescription="rule mark container"><line aria-label="days_to_departure: 54.5536598426" role="graphics-symbol" aria-roledescription="rule mark" transform="translate(31.17351991005085,0)" x2="0" y2="200" stroke="red" stroke-width="2"/></g><g class="mark-text role-mark layer_2_marks" role="graphics-object" aria-roledescription="text mark container"><text aria-label="days_to_departure: 54.5536598426; label: Mean = 55 days" role="graphics-symbol" aria-roledescription="text mark" text-anchor="start" transform="translate(36.17351991005085,8.018)" font-family="sans-serif" font-size="11px" fill="red">Mean = 55 days</text></g><g class="mark-group role-title"><g transform="translate(200,-22)"><path class="background" aria-hidden="true" d="M0,0h0v0h0Z" pointer-events="none"/><g><g class="mark-text role-title-text" role="graphics-symbol" aria-roledescription="title" aria-label="Title text 'Density of Days Between Arrest and Departure'" pointer-events="none"><text text-anchor="middle" transform="translate(0,10)" font-family="sans-serif" font-size="13px" font-weight="bold" fill="#000" opacity="1">Density of Days Between Arrest and Departure</text></g></g><path class="foreground" aria-hidden="true" d="" pointer-events="none" display="none"/></g></g></g><path class="foreground" aria-hidden="true" d="" display="none"/></g></g></g></svg>